<mxfile host="app.diagrams.net" modified="2023-08-04T15:28:42.796Z" agent="Mozilla/5.0 (Windows NT 10.0; Win64; x64) AppleWebKit/537.36 (KHTML, like Gecko) Chrome/115.0.0.0 Safari/537.36" etag="pugcECzwKYuII28bs7NF" version="21.6.6" type="github">
  <diagram name="Page-1" id="WGj79It_t_PCtZDcPty2">
    <mxGraphModel dx="1050" dy="566" grid="1" gridSize="10" guides="1" tooltips="1" connect="1" arrows="1" fold="1" page="1" pageScale="1" pageWidth="850" pageHeight="1100" math="0" shadow="0">
      <root>
        <mxCell id="0" />
        <mxCell id="1" parent="0" />
        <mxCell id="eiq1AXnp2d4OMQ7tatOk-8" style="edgeStyle=orthogonalEdgeStyle;rounded=0;orthogonalLoop=1;jettySize=auto;html=1;exitX=1;exitY=0.5;exitDx=0;exitDy=0;strokeWidth=2;strokeColor=#000033;" edge="1" parent="1" source="eiq1AXnp2d4OMQ7tatOk-1">
          <mxGeometry relative="1" as="geometry">
            <mxPoint x="750" y="350" as="targetPoint" />
          </mxGeometry>
        </mxCell>
        <mxCell id="eiq1AXnp2d4OMQ7tatOk-1" value="" style="rounded=0;whiteSpace=wrap;html=1;fillColor=#000033;" vertex="1" parent="1">
          <mxGeometry x="120" y="110" width="600" height="180" as="geometry" />
        </mxCell>
        <mxCell id="eiq1AXnp2d4OMQ7tatOk-17" style="edgeStyle=orthogonalEdgeStyle;rounded=0;orthogonalLoop=1;jettySize=auto;html=1;exitX=0;exitY=0.5;exitDx=0;exitDy=0;strokeColor=#3333FF;strokeWidth=2;" edge="1" parent="1" source="eiq1AXnp2d4OMQ7tatOk-2">
          <mxGeometry relative="1" as="geometry">
            <mxPoint x="90" y="350" as="targetPoint" />
          </mxGeometry>
        </mxCell>
        <mxCell id="eiq1AXnp2d4OMQ7tatOk-2" value="&lt;font style=&quot;font-size: 19px;&quot;&gt;LABEL&lt;/font&gt;" style="rounded=0;whiteSpace=wrap;html=1;fillColor=#3333FF;strokeColor=none;" vertex="1" parent="1">
          <mxGeometry x="130" y="170" width="190" height="60" as="geometry" />
        </mxCell>
        <mxCell id="eiq1AXnp2d4OMQ7tatOk-10" style="edgeStyle=orthogonalEdgeStyle;rounded=0;orthogonalLoop=1;jettySize=auto;html=1;exitX=0.5;exitY=1;exitDx=0;exitDy=0;strokeColor=#FF3333;strokeWidth=2;" edge="1" parent="1" source="eiq1AXnp2d4OMQ7tatOk-3">
          <mxGeometry relative="1" as="geometry">
            <mxPoint x="520" y="350" as="targetPoint" />
          </mxGeometry>
        </mxCell>
        <mxCell id="eiq1AXnp2d4OMQ7tatOk-3" value="" style="rounded=0;whiteSpace=wrap;html=1;fillColor=#FF0000;gradientColor=none;" vertex="1" parent="1">
          <mxGeometry x="330" y="120" width="380" height="160" as="geometry" />
        </mxCell>
        <mxCell id="eiq1AXnp2d4OMQ7tatOk-13" style="edgeStyle=orthogonalEdgeStyle;rounded=0;orthogonalLoop=1;jettySize=auto;html=1;exitX=0.25;exitY=1;exitDx=0;exitDy=0;strokeColor=#0066CC;strokeWidth=2;" edge="1" parent="1" source="eiq1AXnp2d4OMQ7tatOk-4">
          <mxGeometry relative="1" as="geometry">
            <mxPoint x="330" y="350" as="targetPoint" />
          </mxGeometry>
        </mxCell>
        <mxCell id="eiq1AXnp2d4OMQ7tatOk-4" value="" style="rounded=0;whiteSpace=wrap;html=1;fillColor=#0066CC;" vertex="1" parent="1">
          <mxGeometry x="350" y="140" width="340" height="120" as="geometry" />
        </mxCell>
        <mxCell id="eiq1AXnp2d4OMQ7tatOk-15" style="edgeStyle=orthogonalEdgeStyle;rounded=0;orthogonalLoop=1;jettySize=auto;html=1;exitX=0.5;exitY=0;exitDx=0;exitDy=0;strokeColor=#003300;strokeWidth=2;" edge="1" parent="1" source="eiq1AXnp2d4OMQ7tatOk-5">
          <mxGeometry relative="1" as="geometry">
            <mxPoint x="520" y="70" as="targetPoint" />
          </mxGeometry>
        </mxCell>
        <mxCell id="eiq1AXnp2d4OMQ7tatOk-5" value="&lt;font style=&quot;font-size: 20px;&quot;&gt;FIELD&lt;/font&gt;" style="rounded=0;whiteSpace=wrap;html=1;fillColor=#003300;" vertex="1" parent="1">
          <mxGeometry x="370" y="170" width="300" height="60" as="geometry" />
        </mxCell>
        <mxCell id="eiq1AXnp2d4OMQ7tatOk-9" value="&lt;font style=&quot;font-size: 18px;&quot; color=&quot;#000033&quot;&gt;containerClasses&lt;/font&gt;" style="text;html=1;align=center;verticalAlign=middle;resizable=0;points=[];autosize=1;strokeColor=none;fillColor=none;" vertex="1" parent="1">
          <mxGeometry x="670" y="353" width="160" height="40" as="geometry" />
        </mxCell>
        <mxCell id="eiq1AXnp2d4OMQ7tatOk-11" value="&lt;font style=&quot;font-size: 18px;&quot; color=&quot;#ff3333&quot;&gt;wrapperClasses&lt;/font&gt;" style="text;html=1;align=center;verticalAlign=middle;resizable=0;points=[];autosize=1;strokeColor=none;fillColor=none;" vertex="1" parent="1">
          <mxGeometry x="445" y="353" width="150" height="40" as="geometry" />
        </mxCell>
        <mxCell id="eiq1AXnp2d4OMQ7tatOk-14" value="&lt;font style=&quot;font-size: 18px;&quot; color=&quot;#0066cc&quot;&gt;parentClasses&lt;/font&gt;" style="text;html=1;align=center;verticalAlign=middle;resizable=0;points=[];autosize=1;strokeColor=none;fillColor=none;" vertex="1" parent="1">
          <mxGeometry x="260" y="353" width="140" height="40" as="geometry" />
        </mxCell>
        <mxCell id="eiq1AXnp2d4OMQ7tatOk-16" value="&lt;font color=&quot;#00331a&quot; style=&quot;font-size: 18px;&quot;&gt;fieldClasses&lt;/font&gt;" style="text;html=1;align=center;verticalAlign=middle;resizable=0;points=[];autosize=1;strokeColor=none;fillColor=none;" vertex="1" parent="1">
          <mxGeometry x="460" y="33" width="120" height="40" as="geometry" />
        </mxCell>
        <mxCell id="eiq1AXnp2d4OMQ7tatOk-18" value="&lt;font style=&quot;font-size: 18px;&quot; color=&quot;#6666ff&quot;&gt;labelClasses&lt;/font&gt;" style="text;html=1;align=center;verticalAlign=middle;resizable=0;points=[];autosize=1;strokeColor=none;fillColor=none;" vertex="1" parent="1">
          <mxGeometry x="25" y="353" width="130" height="40" as="geometry" />
        </mxCell>
        <mxCell id="eiq1AXnp2d4OMQ7tatOk-41" style="edgeStyle=orthogonalEdgeStyle;rounded=0;orthogonalLoop=1;jettySize=auto;html=1;exitX=0.75;exitY=1;exitDx=0;exitDy=0;strokeColor=#000033;strokeWidth=2;" edge="1" parent="1" source="eiq1AXnp2d4OMQ7tatOk-20" target="eiq1AXnp2d4OMQ7tatOk-29">
          <mxGeometry relative="1" as="geometry" />
        </mxCell>
        <mxCell id="eiq1AXnp2d4OMQ7tatOk-20" value="" style="rounded=0;whiteSpace=wrap;html=1;fillColor=#000033;" vertex="1" parent="1">
          <mxGeometry x="112.5" y="506" width="600" height="461" as="geometry" />
        </mxCell>
        <mxCell id="eiq1AXnp2d4OMQ7tatOk-21" style="edgeStyle=orthogonalEdgeStyle;rounded=0;orthogonalLoop=1;jettySize=auto;html=1;exitX=0;exitY=0.5;exitDx=0;exitDy=0;strokeColor=#3333FF;strokeWidth=2;" edge="1" parent="1" source="eiq1AXnp2d4OMQ7tatOk-22">
          <mxGeometry relative="1" as="geometry">
            <mxPoint x="82.5" y="746" as="targetPoint" />
          </mxGeometry>
        </mxCell>
        <mxCell id="eiq1AXnp2d4OMQ7tatOk-22" value="&lt;font style=&quot;font-size: 19px;&quot;&gt;LABEL&lt;/font&gt;" style="rounded=0;whiteSpace=wrap;html=1;fillColor=#3333FF;strokeColor=none;" vertex="1" parent="1">
          <mxGeometry x="122.5" y="566" width="190" height="60" as="geometry" />
        </mxCell>
        <mxCell id="eiq1AXnp2d4OMQ7tatOk-42" style="edgeStyle=orthogonalEdgeStyle;rounded=0;orthogonalLoop=1;jettySize=auto;html=1;exitX=0.25;exitY=1;exitDx=0;exitDy=0;entryX=0.531;entryY=0.05;entryDx=0;entryDy=0;entryPerimeter=0;strokeColor=#FF0000;strokeWidth=2;" edge="1" parent="1" source="eiq1AXnp2d4OMQ7tatOk-24" target="eiq1AXnp2d4OMQ7tatOk-30">
          <mxGeometry relative="1" as="geometry" />
        </mxCell>
        <mxCell id="eiq1AXnp2d4OMQ7tatOk-24" value="" style="rounded=0;whiteSpace=wrap;html=1;fillColor=#FF0000;gradientColor=none;" vertex="1" parent="1">
          <mxGeometry x="322.5" y="516" width="380" height="441" as="geometry" />
        </mxCell>
        <mxCell id="eiq1AXnp2d4OMQ7tatOk-46" style="edgeStyle=orthogonalEdgeStyle;rounded=0;orthogonalLoop=1;jettySize=auto;html=1;exitX=0;exitY=0.5;exitDx=0;exitDy=0;strokeWidth=2;strokeColor=#0066CC;entryX=0.509;entryY=-0.05;entryDx=0;entryDy=0;entryPerimeter=0;" edge="1" parent="1" source="eiq1AXnp2d4OMQ7tatOk-26" target="eiq1AXnp2d4OMQ7tatOk-31">
          <mxGeometry relative="1" as="geometry">
            <mxPoint x="180" y="777" as="targetPoint" />
            <Array as="points">
              <mxPoint x="343" y="637" />
              <mxPoint x="181" y="637" />
            </Array>
          </mxGeometry>
        </mxCell>
        <mxCell id="eiq1AXnp2d4OMQ7tatOk-26" value="" style="rounded=0;whiteSpace=wrap;html=1;fillColor=#0066CC;" vertex="1" parent="1">
          <mxGeometry x="342.5" y="536" width="340" height="120" as="geometry" />
        </mxCell>
        <mxCell id="eiq1AXnp2d4OMQ7tatOk-38" style="edgeStyle=orthogonalEdgeStyle;rounded=0;orthogonalLoop=1;jettySize=auto;html=1;exitX=1;exitY=0.5;exitDx=0;exitDy=0;strokeColor=#00331A;strokeWidth=2;" edge="1" parent="1" source="eiq1AXnp2d4OMQ7tatOk-28" target="eiq1AXnp2d4OMQ7tatOk-32">
          <mxGeometry relative="1" as="geometry">
            <mxPoint x="820" y="716.5" as="targetPoint" />
          </mxGeometry>
        </mxCell>
        <mxCell id="eiq1AXnp2d4OMQ7tatOk-28" value="&lt;font style=&quot;font-size: 20px;&quot;&gt;FIELD&lt;/font&gt;" style="rounded=0;whiteSpace=wrap;html=1;fillColor=#003300;" vertex="1" parent="1">
          <mxGeometry x="362.5" y="566" width="300" height="60" as="geometry" />
        </mxCell>
        <mxCell id="eiq1AXnp2d4OMQ7tatOk-29" value="&lt;font style=&quot;font-size: 18px;&quot; color=&quot;#000033&quot;&gt;containerClasses&lt;/font&gt;" style="text;html=1;align=center;verticalAlign=middle;resizable=0;points=[];autosize=1;strokeColor=none;fillColor=none;" vertex="1" parent="1">
          <mxGeometry x="560" y="1017" width="160" height="40" as="geometry" />
        </mxCell>
        <mxCell id="eiq1AXnp2d4OMQ7tatOk-30" value="&lt;font style=&quot;font-size: 18px;&quot; color=&quot;#ff3333&quot;&gt;wrapperClasses&lt;/font&gt;" style="text;html=1;align=center;verticalAlign=middle;resizable=0;points=[];autosize=1;strokeColor=none;fillColor=none;" vertex="1" parent="1">
          <mxGeometry x="337.5" y="1017" width="150" height="40" as="geometry" />
        </mxCell>
        <mxCell id="eiq1AXnp2d4OMQ7tatOk-31" value="&lt;font style=&quot;font-size: 18px;&quot; color=&quot;#0066cc&quot;&gt;parentClasses&lt;/font&gt;" style="text;html=1;align=center;verticalAlign=middle;resizable=0;points=[];autosize=1;strokeColor=none;fillColor=none;" vertex="1" parent="1">
          <mxGeometry x="110" y="1017" width="140" height="40" as="geometry" />
        </mxCell>
        <mxCell id="eiq1AXnp2d4OMQ7tatOk-32" value="&lt;font color=&quot;#00331a&quot; style=&quot;font-size: 18px;&quot;&gt;fieldClasses&lt;/font&gt;" style="text;html=1;align=center;verticalAlign=middle;resizable=0;points=[];autosize=1;strokeColor=none;fillColor=none;rotation=90;" vertex="1" parent="1">
          <mxGeometry x="712.5" y="717" width="120" height="40" as="geometry" />
        </mxCell>
        <mxCell id="eiq1AXnp2d4OMQ7tatOk-33" value="&lt;font style=&quot;font-size: 18px;&quot; color=&quot;#6666ff&quot;&gt;labelClasses&lt;/font&gt;" style="text;html=1;align=center;verticalAlign=middle;resizable=0;points=[];autosize=1;strokeColor=none;fillColor=none;rotation=90;" vertex="1" parent="1">
          <mxGeometry x="20" y="789" width="130" height="40" as="geometry" />
        </mxCell>
        <mxCell id="eiq1AXnp2d4OMQ7tatOk-47" style="edgeStyle=orthogonalEdgeStyle;rounded=0;orthogonalLoop=1;jettySize=auto;html=1;exitX=0;exitY=0.75;exitDx=0;exitDy=0;strokeColor=#0066CC;strokeWidth=2;" edge="1" parent="1" source="eiq1AXnp2d4OMQ7tatOk-34">
          <mxGeometry relative="1" as="geometry">
            <mxPoint x="180" y="767" as="targetPoint" />
          </mxGeometry>
        </mxCell>
        <mxCell id="eiq1AXnp2d4OMQ7tatOk-34" value="" style="rounded=0;whiteSpace=wrap;html=1;fillColor=#0066CC;" vertex="1" parent="1">
          <mxGeometry x="342.5" y="677" width="340" height="120" as="geometry" />
        </mxCell>
        <mxCell id="eiq1AXnp2d4OMQ7tatOk-39" style="edgeStyle=orthogonalEdgeStyle;rounded=0;orthogonalLoop=1;jettySize=auto;html=1;exitX=1;exitY=0.5;exitDx=0;exitDy=0;strokeColor=#00331A;strokeWidth=2;entryX=0.482;entryY=1;entryDx=0;entryDy=0;entryPerimeter=0;" edge="1" parent="1" source="eiq1AXnp2d4OMQ7tatOk-35" target="eiq1AXnp2d4OMQ7tatOk-32">
          <mxGeometry relative="1" as="geometry">
            <mxPoint x="760" y="736.5" as="targetPoint" />
          </mxGeometry>
        </mxCell>
        <mxCell id="eiq1AXnp2d4OMQ7tatOk-35" value="&lt;font style=&quot;font-size: 20px;&quot;&gt;FIELD&lt;/font&gt;" style="rounded=0;whiteSpace=wrap;html=1;fillColor=#003300;" vertex="1" parent="1">
          <mxGeometry x="362.5" y="707" width="300" height="60" as="geometry" />
        </mxCell>
        <mxCell id="eiq1AXnp2d4OMQ7tatOk-45" style="edgeStyle=orthogonalEdgeStyle;rounded=0;orthogonalLoop=1;jettySize=auto;html=1;exitX=0;exitY=0.5;exitDx=0;exitDy=0;strokeColor=#0066CC;strokeWidth=2;" edge="1" parent="1" source="eiq1AXnp2d4OMQ7tatOk-36">
          <mxGeometry relative="1" as="geometry">
            <mxPoint x="180" y="877" as="targetPoint" />
          </mxGeometry>
        </mxCell>
        <mxCell id="eiq1AXnp2d4OMQ7tatOk-36" value="" style="rounded=0;whiteSpace=wrap;html=1;fillColor=#0066CC;" vertex="1" parent="1">
          <mxGeometry x="342.5" y="817" width="340" height="120" as="geometry" />
        </mxCell>
        <mxCell id="eiq1AXnp2d4OMQ7tatOk-53" style="edgeStyle=orthogonalEdgeStyle;rounded=0;orthogonalLoop=1;jettySize=auto;html=1;exitX=1;exitY=0.5;exitDx=0;exitDy=0;entryX=0.988;entryY=0.542;entryDx=0;entryDy=0;entryPerimeter=0;" edge="1" parent="1" source="eiq1AXnp2d4OMQ7tatOk-37" target="eiq1AXnp2d4OMQ7tatOk-32">
          <mxGeometry relative="1" as="geometry" />
        </mxCell>
        <mxCell id="eiq1AXnp2d4OMQ7tatOk-37" value="&lt;font style=&quot;font-size: 20px;&quot;&gt;FIELD&lt;/font&gt;" style="rounded=0;whiteSpace=wrap;html=1;fillColor=#003300;" vertex="1" parent="1">
          <mxGeometry x="362.5" y="847" width="300" height="60" as="geometry" />
        </mxCell>
        <mxCell id="eiq1AXnp2d4OMQ7tatOk-48" value="&lt;font style=&quot;font-size: 18px;&quot;&gt;&lt;b&gt;Field multiple values&lt;br&gt;&lt;/b&gt;&lt;/font&gt;" style="text;html=1;align=center;verticalAlign=middle;resizable=0;points=[];autosize=1;strokeColor=none;fillColor=none;strokeWidth=1;rounded=0;glass=0;" vertex="1" parent="1">
          <mxGeometry x="110" y="453" width="200" height="40" as="geometry" />
        </mxCell>
        <mxCell id="eiq1AXnp2d4OMQ7tatOk-49" value="&lt;font style=&quot;font-size: 18px;&quot;&gt;&lt;b&gt;Field single value&lt;/b&gt;&lt;/font&gt;" style="text;html=1;align=center;verticalAlign=middle;resizable=0;points=[];autosize=1;strokeColor=none;fillColor=none;strokeWidth=1;rounded=0;glass=0;" vertex="1" parent="1">
          <mxGeometry x="112.5" y="60" width="170" height="40" as="geometry" />
        </mxCell>
      </root>
    </mxGraphModel>
  </diagram>
</mxfile>
